<?xml version="1.0" standalone="no"?>
<!DOCTYPE svg PUBLIC "-//W3C//DTD SVG 20010904//EN"
 "http://www.w3.org/TR/2001/REC-SVG-20010904/DTD/svg10.dtd">
<svg version="1.0" xmlns="http://www.w3.org/2000/svg"
 width="250.000000pt" height="292.000000pt" viewBox="0 0 250.000000 292.000000"
 preserveAspectRatio="xMidYMid meet">

<g transform="translate(0.000000,292.000000) scale(0.100000,-0.100000)"
fill="#000000" stroke="none">
<path d="M1045 2914 c-274 -38 -505 -135 -731 -305 -118 -89 -120 -91 -98
-123 l16 -26 -75 -79 c-102 -107 -149 -199 -94 -186 55 13 122 23 129 19 4 -3
10 -21 14 -42 4 -20 17 -61 30 -91 13 -29 24 -59 24 -65 0 -6 -18 -38 -41 -71
-52 -76 -119 -210 -149 -295 -70 -205 -89 -428 -50 -608 63 -293 179 -506 382
-696 50 -48 122 -107 159 -132 229 -152 552 -235 799 -205 448 54 813 309
1007 702 82 166 114 301 120 510 5 137 2 170 -17 260 -39 183 -86 298 -183
447 l-60 94 16 32 c9 17 24 56 33 86 8 30 17 60 19 66 3 9 22 8 76 -2 39 -7
76 -11 80 -8 17 10 -42 103 -116 182 l-76 81 17 30 c22 37 19 41 -81 116 -168
126 -395 232 -602 281 -94 23 -135 26 -313 29 -113 2 -218 1 -235 -1z m415
-26 c267 -36 588 -175 779 -336 l35 -29 -103 -121 -102 -120 -92 69 c-204 155
-453 232 -742 232 -277 -1 -480 -66 -718 -230 -60 -41 -110 -73 -111 -71 -2 1
-44 54 -95 115 l-92 113 37 32 c77 69 200 149 307 202 287 140 584 187 897
144z m-18 -337 c132 -23 259 -65 379 -127 105 -54 125 -73 105 -99 -13 -18
-15 -17 -62 9 -224 125 -494 183 -732 158 -181 -20 -304 -57 -465 -141 -86
-44 -89 -45 -103 -26 -8 10 -13 24 -11 30 6 16 125 82 217 119 222 88 449 115
672 77z m-1104 -221 l93 -111 -33 -26 c-18 -15 -57 -51 -86 -81 l-52 -54 -16
38 c-9 21 -18 62 -21 91 -7 61 -6 60 -102 38 -35 -9 -66 -13 -69 -11 -10 11
50 95 114 159 38 37 71 67 74 67 3 0 48 -50 98 -110z m1984 43 c68 -70 118
-136 118 -158 0 -9 -10 -9 -47 0 -27 7 -65 15 -85 19 -38 7 -38 7 -38 -27 0
-37 -26 -133 -38 -141 -5 -3 -44 30 -89 73 -70 68 -78 80 -67 95 34 47 168
206 173 206 4 0 36 -30 73 -67z m-937 16 c494 -61 897 -440 990 -931 19 -104
19 -312 0 -416 -42 -222 -140 -413 -295 -576 -329 -347 -812 -455 -1255 -281
-345 135 -615 450 -695 812 -86 387 29 783 310 1063 251 252 596 372 945 329z"/>
<path d="M1025 2866 c-276 -46 -535 -159 -727 -319 l-48 -39 81 -99 c52 -63
85 -96 93 -91 6 4 54 36 106 71 237 162 490 233 774 217 259 -14 495 -93 674
-226 66 -49 86 -59 97 -50 7 6 48 51 89 100 l76 89 -42 34 c-163 132 -414 245
-660 298 -120 26 -397 34 -513 15z m364 -41 c34 -17 41 -39 31 -96 -13 -72
-72 -99 -139 -64 -30 15 -41 39 -41 93 0 68 78 104 149 67z m-245 -11 c19 -18
21 -50 5 -60 -8 -5 -6 -10 5 -16 19 -11 21 -51 3 -67 -15 -12 -117 -34 -125
-27 -6 7 -31 127 -32 153 0 17 7 23 33 26 69 8 96 6 111 -9z m509 -52 c23 -20
22 -59 -3 -74 -15 -10 -20 -24 -20 -55 0 -24 -3 -43 -7 -43 -19 1 -31 18 -37
53 -4 20 -9 37 -11 37 -2 0 -10 2 -18 6 -10 3 -16 -4 -20 -25 -5 -22 -12 -31
-27 -31 -12 0 -20 7 -20 16 0 14 25 120 35 151 5 15 101 -11 128 -35z m-752
18 c21 -12 27 -64 8 -76 -7 -4 1 -19 21 -39 31 -32 32 -33 10 -40 -16 -5 -29
0 -49 19 -37 36 -64 35 -55 -1 11 -45 10 -47 -11 -51 -17 -2 -24 9 -45 69 -14
39 -25 76 -25 82 0 10 85 45 113 46 7 1 22 -4 33 -9z m906 -52 c4 -7 13 -38
19 -68 l12 -55 21 48 c19 41 24 46 42 37 10 -6 19 -15 19 -21 0 -15 -69 -149
-78 -149 -20 1 -31 20 -42 75 l-13 60 -18 -42 c-16 -39 -36 -53 -51 -37 -3 3
6 41 20 85 19 58 31 79 44 79 9 0 20 -6 25 -12z m-1146 -20 c1 -7 1 -18 0 -25
-3 -20 37 -90 54 -96 23 -10 18 -25 -15 -42 -33 -17 -55 -12 -46 11 6 17 -39
99 -55 99 -26 0 -19 25 13 45 38 23 48 25 49 8z m1432 -141 c26 -20 35 -33 28
-40 -7 -7 -23 -2 -50 16 -48 32 -47 32 -55 10 -4 -11 4 -25 25 -43 46 -38 30
-60 -18 -24 -28 22 -37 24 -44 13 -7 -10 2 -23 28 -46 29 -24 35 -35 26 -44
-8 -8 -25 -1 -67 30 l-55 41 45 76 46 75 27 -17 c14 -9 43 -30 64 -47z m-1561
-8 c72 -54 81 -74 32 -74 -38 0 -74 -21 -74 -44 0 -17 -27 -49 -34 -40 -1 2
-11 44 -21 93 -18 86 -18 89 0 102 10 8 21 14 23 14 3 0 36 -23 74 -51z"/>
<path d="M1301 2796 c-7 -8 -11 -34 -9 -58 3 -42 4 -43 38 -43 33 0 35 2 44
44 8 38 7 46 -9 57 -24 18 -49 18 -64 0z"/>
<path d="M1050 2776 c0 -20 16 -29 40 -21 32 10 25 35 -10 35 -19 0 -30 -5
-30 -14z"/>
<path d="M1060 2706 c0 -22 15 -27 45 -16 33 12 24 30 -16 30 -19 0 -29 -5
-29 -14z"/>
<path d="M1560 2741 c0 -26 47 -41 61 -20 10 17 2 26 -33 34 -24 6 -28 4 -28
-14z"/>
<path d="M828 2743 c-19 -5 -24 -28 -9 -37 15 -10 63 13 58 27 -4 13 -23 17
-49 10z"/>
<path d="M470 2534 c0 -10 4 -25 9 -32 6 -10 10 -10 19 1 9 11 8 18 -8 32 -19
17 -20 17 -20 -1z"/>
<path d="M156 2329 c-42 -45 -75 -83 -73 -85 4 -4 48 3 135 22 20 4 22 1 22
-36 0 -33 18 -130 24 -130 1 0 30 27 65 59 43 41 60 64 55 73 -10 17 -145 178
-149 178 -2 0 -37 -37 -79 -81z"/>
<path d="M2174 2315 l-81 -98 60 -56 c33 -31 63 -57 67 -59 10 -4 30 86 30
130 l0 31 53 -7 c28 -4 62 -10 75 -13 37 -9 26 12 -51 92 l-72 77 -81 -97z"/>
<path d="M1065 2305 c-352 -64 -644 -290 -791 -612 -110 -239 -124 -539 -37
-793 115 -337 400 -597 759 -691 77 -21 111 -24 254 -23 145 1 177 4 262 27
345 92 619 341 739 668 50 138 62 209 62 374 0 128 -4 164 -26 246 -98 370
-349 646 -700 765 -153 52 -365 68 -522 39z"/>
</g>
</svg>
